<svg viewBox="0 0 126 20" fill="none" xmlns="http://www.w3.org/2000/svg">
    <g clip-path="url(#clip0_2_53)">
        <path d="M5.41 14.1L2.53 5.52L2.47 5.37H0L4.1 16.85L4.16 17H6.55L10.64 5.37H8.23L5.41 14.1Z" fill="white"/>
        <path d="M12.8599 0.790039H12.7399C11.8699 0.790039 11.3999 1.30004 11.3999 2.23004V2.28004C11.3999 3.21004 11.8799 3.72004 12.7399 3.72004H12.8599C13.7299 3.72004 14.1999 3.21004 14.1999 2.24004C14.1999 1.27004 13.7199 0.800039 12.8599 0.800039V0.790039Z" fill="white"/>
        <path d="M13.9701 5.37H11.6201V17H13.9701V5.37Z" fill="white"/>
        <path d="M20.4002 10.07C19.1102 9.66005 17.9802 9.30005 17.9802 8.36005C17.9802 7.47005 18.7302 7.01005 20.1902 7.01005C21.0602 7.01005 22.0602 7.13005 23.0802 7.37005L23.3302 7.43005L23.5402 5.60005L23.3602 5.54005C22.3802 5.24005 21.1002 5.05005 20.0302 5.05005C17.3502 5.05005 15.7402 6.34005 15.7402 8.49005C15.7402 10.96 17.8702 11.61 19.5802 12.14C20.8602 12.53 21.9602 12.87 21.9602 13.8C21.9602 15.06 20.5602 15.33 19.3802 15.33C18.4102 15.33 17.2002 15.17 16.3202 14.93L16.0502 14.86L15.9302 16.78L16.1002 16.83C16.9702 17.12 18.3902 17.32 19.4602 17.32C22.5202 17.32 24.2002 16.03 24.2002 13.67C24.2002 11.31 22.0902 10.61 20.3902 10.07H20.4002Z" fill="white"/>
        <path d="M28.2502 2.89001C28.4002 2.21001 28.6602 2.16001 28.9402 2.16001C29.2702 2.16001 29.6902 2.34001 30.1402 2.53001C30.7302 2.78001 31.3902 3.05001 32.0902 3.05001C33.3302 3.05001 34.1102 2.11001 34.2302 0.47001L34.2502 0.26001L32.7602 0.0100098L32.7102 0.22001C32.5602 0.90001 32.2902 0.95001 32.0202 0.95001C31.6902 0.95001 31.2702 0.77001 30.8102 0.58001C30.2302 0.33001 29.5602 0.0600098 28.8702 0.0600098C27.6302 0.0600098 26.8502 1.00001 26.7202 2.64001L26.7002 2.85001L28.2002 3.10001L28.2502 2.89001Z" fill="white"/>
        <path d="M30.0801 5.05005C28.9501 5.05005 27.6601 5.20005 26.6301 5.44005L26.4501 5.48005L26.5301 7.39005L26.7801 7.35005C27.8401 7.18005 28.8901 7.08005 29.7601 7.08005C30.8101 7.08005 31.5001 7.27005 31.9301 7.67005C32.2901 8.03005 32.4301 8.53005 32.4301 9.40005V9.88005H30.3301C28.5001 9.88005 27.2101 10.25 26.3801 11.01C25.7101 11.64 25.3501 12.53 25.3501 13.6C25.3501 14.67 25.6701 15.52 26.3001 16.18C27.0201 16.93 28.0901 17.32 29.3801 17.32C30.5501 17.32 31.6701 17.01 32.7201 16.4L32.8101 17H34.7701V9.34005C34.7701 7.79005 34.4701 6.86005 33.7201 6.14005C32.9401 5.41005 31.7501 5.05005 30.0701 5.05005H30.0801ZM29.8001 15.34C28.4301 15.34 27.7201 14.74 27.7201 13.56C27.7201 12.98 27.8901 12.55 28.2501 12.26C28.7101 11.9 29.4301 11.74 30.5901 11.74H32.4201V14.7C31.5901 15.09 30.5701 15.35 29.8001 15.35V15.34Z" fill="white"/>
        <path d="M41.7099 5.05005C38.2299 5.05005 36.3999 7.17005 36.3999 11.18C36.3999 15.19 38.2299 17.32 41.7099 17.32C45.1899 17.32 47.0299 15.2 47.0299 11.18C47.0299 7.16005 45.1899 5.05005 41.7099 5.05005ZM41.7099 15.31C39.6999 15.31 38.8399 14.07 38.8399 11.18C38.8399 8.29005 39.6999 7.05005 41.7099 7.05005C43.7199 7.05005 44.5799 8.28005 44.5799 11.18C44.5799 14.08 43.7199 15.31 41.7099 15.31Z" fill="white"/>
        <path d="M61.25 5.05005C59.99 5.05005 58.62 5.46005 57.29 6.24005C56.61 5.44005 55.59 5.05005 54.21 5.05005C53.08 5.05005 51.93 5.38005 50.79 6.04005L50.71 5.37005H48.71V17H51.06V7.82005C51.98 7.40005 52.93 7.17005 53.75 7.17005C54.47 7.17005 55.01 7.34005 55.34 7.67005C55.68 8.01005 55.82 8.52005 55.82 9.40005V17H58.17V9.18005C58.17 8.71005 58.13 8.26005 58.04 7.83005C58.94 7.42005 59.96 7.18005 60.79 7.18005C61.51 7.18005 62.05 7.35005 62.38 7.68005C62.72 8.02005 62.86 8.53005 62.86 9.41005V17.01H65.21V9.19005C65.21 7.77005 64.89 6.79005 64.21 6.11005C63.54 5.41005 62.54 5.06005 61.24 5.06005L61.25 5.05005Z" fill="#21B784"/>
        <path d="M74.6999 14.55C73.7899 14.96 72.7399 15.2 71.8499 15.2C71.0899 15.2 70.5499 15.03 70.2099 14.7C69.8699 14.36 69.7299 13.86 69.7299 12.97V5.38H67.3799V13.2C67.3799 14.62 67.6999 15.6 68.3799 16.28C69.0499 16.97 70.0499 17.33 71.3499 17.33C72.5299 17.33 73.8099 16.98 74.9699 16.33L75.0399 17.01H77.0499V5.37H74.6999V14.55Z" fill="#21B784"/>
        <path d="M81.6898 0.23999H79.3398V17H81.6898V0.23999Z" fill="#21B784"/>
        <path d="M90.2601 15.18C89.7301 15.29 88.9901 15.36 88.6201 15.36C87.7901 15.36 87.5101 15.18 87.3501 15C87.1001 14.74 87.0201 14.3 87.0201 13.2V7.22002H89.9601V5.37002H87.0201V2.40002H86.7901C86.1301 2.40002 85.3401 2.58002 84.8301 2.75002L84.6701 2.80002V5.41002L82.6401 5.71002V7.21002H84.6701V13.44C84.6701 14.95 84.8701 15.71 85.4301 16.37C85.9701 16.98 86.9101 17.32 88.0901 17.32C89.0001 17.32 89.9101 17.16 90.4501 17.02L90.6301 16.97L90.5101 15.13L90.2601 15.18Z" fill="#21B784"/>
        <path d="M94.2401 5.37H91.8901V17H94.2401V5.37Z" fill="#21B784"/>
        <path d="M93.0002 3.70003H93.1202C93.9902 3.70003 94.4602 3.19003 94.4602 2.22003C94.4602 1.25003 93.9802 0.780029 93.1202 0.780029H93.0002C92.1302 0.780029 91.6602 1.29003 91.6602 2.22003V2.27003C91.6602 3.20003 92.1402 3.71003 93.0002 3.71003V3.70003Z" fill="#21B784"/>
        <path opacity="0.5" d="M122.42 2.24001L111.86 7.68001L113.66 8.72001C115.13 9.57001 115.13 11.69 113.66 12.53L111.86 13.57L122.42 19.01C123.88 19.77 125.63 18.7 125.63 17.05V4.20001C125.63 2.55001 123.89 1.49001 122.42 2.24001Z" fill="#21B784"/>
        <path d="M113.66 8.72005L111.86 7.68004L106.48 4.58004C105.01 3.73004 103.18 4.79004 103.18 6.49004V14.78C103.18 16.47 105.01 17.53 106.48 16.69L111.86 13.59L113.66 12.55C115.13 11.7 115.13 9.59004 113.66 8.74004V8.72005Z" fill="#21B784"/>
    </g>
    <defs>
        <clipPath id="clip0_2_53">
            <rect width="125.63" height="19.27" fill="white"/>
        </clipPath>
    </defs>
</svg>
